<svg xmlns="http://www.w3.org/2000/svg" version="1.1" xmlns:xlink="http://www.w3.org/1999/xlink" xmlns:svgjs="http://svgjs.dev/svgjs" width="1000" height="1000" viewBox="0 0 1000 1000"><rect width="1000" height="1000" fill="#ffffff"></rect><g transform="matrix(0.7,0,0,0.7,149.57577483822604,447.0098800568066)"><svg viewBox="0 0 396 60" data-background-color="#ffffff" preserveAspectRatio="xMidYMid meet" height="151" width="1000" xmlns="http://www.w3.org/2000/svg" xmlns:xlink="http://www.w3.org/1999/xlink"><g id="tight-bounds" transform="matrix(1,0,0,1,0.239990234375,0.07953828374269278)"><svg viewBox="0 0 395.52 59.84092219020172" height="59.84092219020172" width="395.52"><rect width="395.52001953125" height="59.84092330932617" fill="url(#5a8d769b-6af0-464b-93e1-1923fd2f5324)" mask="url(&quot;#fa5f4518-3139-4929-8366-c9acb16ece05&quot;)" data-fill-palette-color="primary"></rect><g><svg viewBox="0 0 395.52 59.84092219020172" height="59.84092219020172" width="395.52"><g><svg viewBox="0 0 395.52 59.84092219020172" height="59.84092219020172" width="395.52"><g id="textblocktransform"><svg viewBox="0 0 395.52 59.84092219020172" height="59.84092219020172" width="395.52" id="textblock"><g><svg viewBox="0 0 395.52 59.84092219020172" height="59.84092219020172" width="395.52"><g transform="matrix(1,0,0,1,0,0)"><svg width="395.52" viewBox="2.6500000953674316 -35.95000076293945 240.24000549316406 36.75" height="59.84092219020172" data-palette-color="url(#5a8d769b-6af0-464b-93e1-1923fd2f5324)"><g class="undefined-text-0" data-fill-palette-color="primary" id="text-0"><path d="M106.1-24.2L103.8-24.2Q103.55-26.75 102.5-28.8 101.45-30.85 99.6-32.08 97.75-33.3 95-33.25L95-33.25Q92.2-33.25 90.55-31.7 88.9-30.15 88.9-27.95L88.9-27.95Q88.9-26 90-24.68 91.1-23.35 92.98-22.3 94.85-21.25 97.2-20.2L97.2-20.2Q99.1-19.4 101.05-18.4 103-17.4 104.6-16.13 106.2-14.85 107.15-13.08 108.1-11.3 108.1-8.9L108.1-8.9Q108.1-6.1 106.65-3.9 105.2-1.7 102.53-0.45 99.85 0.8 96.05 0.8L96.05 0.8Q93.9 0.8 91.53 0.15 89.15-0.5 87.2-1.7L87.2-1.7 87.45 0.4 84.4 0.4 84.2-10.6 86.6-10.6Q87-6.25 89.73-4.03 92.45-1.8 96.25-1.8L96.25-1.8Q98.15-1.8 99.7-2.5 101.25-3.2 102.15-4.5 103.05-5.8 103.05-7.55L103.05-7.55Q103.05-9.6 101.83-11 100.6-12.4 98.73-13.4 96.85-14.4 94.8-15.3L94.8-15.3Q92.75-16.2 90.83-17.2 88.9-18.2 87.35-19.5 85.8-20.8 84.9-22.58 84-24.35 84-26.75L84-26.75Q84-28.15 84.5-29.7 85-31.25 86.2-32.65 87.4-34.05 89.48-34.93 91.55-35.8 94.7-35.8L94.7-35.8Q96.6-35.8 98.98-35.25 101.35-34.7 103.3-33.3L103.3-33.3 103.1-35.4 106.1-35.4 106.1-24.2ZM125.1 0L112.8 0 112.8-2.2Q114.45-2.3 115.17-2.9 115.9-3.5 116.1-4.7 116.3-5.9 116.3-7.75L116.3-7.75 116.3-28.55Q116.3-29.65 116.35-30.68 116.4-31.7 116.45-32.45L116.45-32.45Q115.6-32.4 114.6-32.35 113.6-32.3 112.8-32.25L112.8-32.25 112.8-35 125.1-35 125.1-32.8Q123.5-32.75 122.75-32.13 122-31.5 121.8-30.33 121.6-29.15 121.6-27.25L121.6-27.25 121.6-19.1 138.15-19.1 138.15-28.55Q138.15-29.65 138.2-30.68 138.25-31.7 138.3-32.45L138.3-32.45Q137.45-32.4 136.45-32.35 135.45-32.3 134.65-32.25L134.65-32.25 134.65-35 146.95-35 146.95-32.8Q145.35-32.75 144.6-32.13 143.85-31.5 143.65-30.33 143.45-29.15 143.45-27.25L143.45-27.25 143.45-6.7Q143.45-5.35 143.42-4.28 143.4-3.2 143.3-2.55L143.3-2.55Q144.15-2.65 145.15-2.68 146.15-2.7 146.95-2.75L146.95-2.75 146.95 0 134.65 0 134.65-2.2Q136.3-2.3 137.02-2.9 137.75-3.5 137.95-4.7 138.15-5.9 138.15-7.75L138.15-7.75 138.15-16.5 121.6-16.35 121.6-6.7Q121.6-5.35 121.57-4.28 121.55-3.2 121.45-2.55L121.45-2.55Q122.3-2.65 123.32-2.68 124.35-2.7 125.1-2.75L125.1-2.75 125.1 0ZM159.25 0L149.44 0 149.44-2.25Q150.94-2.25 151.75-3.05 152.55-3.85 153.1-5.23 153.64-6.6 154.3-8.3L154.3-8.3 164.39-35.95 166.39-35.95 177.35-7.9Q177.75-6.95 178.25-5.33 178.75-3.7 178.7-2.55L178.7-2.55Q179.55-2.65 180.37-2.68 181.2-2.7 181.95-2.75L181.95-2.75 181.95 0 169.8 0 169.8-2.2Q171.55-2.25 172.12-2.98 172.7-3.7 172.57-4.75 172.45-5.8 172.05-6.85L172.05-6.85 170.55-10.9 158.3-10.6 156.85-6.25Q156.55-5.25 156.19-4.35 155.85-3.45 155.5-2.6L155.5-2.6Q156.39-2.7 157.42-2.73 158.44-2.75 159.25-2.8L159.25-2.8 159.25 0ZM162.3-22.15L159.2-13.3 169.7-13.3 166.55-21.75Q165.95-23.4 165.39-25.03 164.85-26.65 164.39-28.15L164.39-28.15 164.35-28.15Q163.95-26.9 163.45-25.4 162.95-23.9 162.3-22.15L162.3-22.15ZM196.69 0L184.24 0 184.24-2.2Q185.89-2.3 186.62-2.9 187.34-3.5 187.54-4.7 187.74-5.9 187.74-7.75L187.74-7.75 187.74-28.55Q187.74-29.65 187.79-30.68 187.84-31.7 187.89-32.45L187.89-32.45Q187.04-32.4 186.04-32.35 185.04-32.3 184.24-32.25L184.24-32.25 184.24-35Q187.29-35.05 190.39-35.08 193.49-35.1 196.64-35.05L196.64-35.05Q201.34-35.05 204.39-33.98 207.44-32.9 208.97-30.8 210.49-28.7 210.44-25.5L210.44-25.5Q210.49-23.5 209.64-21.53 208.79-19.55 206.79-18 204.79-16.45 201.29-15.65L201.29-15.65Q202.29-15.05 203.09-14 203.89-12.95 204.74-11.65L204.74-11.65 207.79-6.95Q208.74-5.45 209.54-4.4 210.34-3.35 211.34-2.78 212.34-2.2 213.74-2.2L213.74-2.2 213.74 0 206.79 0Q205.49-1.1 204.57-2.38 203.64-3.65 202.59-5.25L202.59-5.25 199.14-10.85Q198.49-11.85 197.77-13 197.04-14.15 196.19-14.95L196.19-14.95Q195.39-14.95 194.62-14.95 193.84-14.95 193.04-14.95L193.04-14.95 193.04-6.7Q193.04-5.35 193.02-4.28 192.99-3.2 192.89-2.55L192.89-2.55Q193.49-2.6 194.17-2.63 194.84-2.65 195.52-2.7 196.19-2.75 196.69-2.75L196.69-2.75 196.69 0ZM195.94-17.4L195.94-17.4Q198.69-17.45 200.64-18.28 202.59-19.1 203.64-20.83 204.69-22.55 204.69-25.3L204.69-25.3Q204.69-27.35 204.09-28.75 203.49-30.15 202.39-31.03 201.29-31.9 199.77-32.27 198.24-32.65 196.49-32.65L196.49-32.65Q194.89-32.65 194.17-32.05 193.44-31.45 193.24-30.3 193.04-29.15 193.04-27.35L193.04-27.35 193.04-17.55Q193.79-17.5 194.47-17.43 195.14-17.35 195.94-17.4ZM236.09-12.65L233.89-12.65Q233.89-14.8 233.27-15.75 232.64-16.7 231.39-16.93 230.14-17.15 228.29-17.05L228.29-17.05 225.39-16.95 225.39-6.55Q225.39-5.2 225.37-4.17 225.34-3.15 225.24-2.5L225.24-2.5 233.84-2.6Q235.79-2.65 237.34-3.33 238.89-4 239.79-5.65 240.69-7.3 240.69-10.15L240.69-10.15 242.89-10.15 242.59 0 216.59 0 216.59-2.2Q218.24-2.3 218.97-2.9 219.69-3.5 219.89-4.7 220.09-5.9 220.09-7.75L220.09-7.75 220.09-28.55Q220.09-29.65 220.14-30.68 220.19-31.7 220.24-32.45L220.24-32.45Q219.39-32.4 218.39-32.35 217.39-32.3 216.59-32.25L216.59-32.25 216.59-35 240.99-35 241.24-25.95 239.04-25.95Q239.04-28.8 238.12-30.3 237.19-31.8 235.72-32.3 234.24-32.8 232.54-32.75L232.54-32.75 229.04-32.65Q227.49-32.65 226.69-32.13 225.89-31.6 225.64-30.43 225.39-29.25 225.39-27.25L225.39-27.25 225.39-19.4 233.64-19.4 233.34-23.7 236.09-23.7 236.09-12.65Z" fill="#0080ff" data-fill-palette-color="secondary"></path></g></svg></g></svg></g></svg></g></svg></g></svg></g><defs><linearGradient x1="0.054" x2="0.941" y1="0.5" y2="0.5" id="5a8d769b-6af0-464b-93e1-1923fd2f5324"><stop stop-color="#0f3054" offset="0"></stop><stop stop-color="#3b8dcb" offset="0.498"></stop><stop stop-color="#0f3054" offset="1"></stop></linearGradient></defs><mask id="fa5f4518-3139-4929-8366-c9acb16ece05"><g id="SvgjsG1039"><svg viewBox="0 0 395.52 59.84092219020172" height="59.84092219020172" width="395.52"><g><svg viewBox="0 0 395.52 59.84092219020172" height="59.84092219020172" width="395.52"><g><svg viewBox="0 0 395.52 59.84092219020172" height="59.84092219020172" width="395.52"><g id="SvgjsG1038"><svg viewBox="0 0 395.52 59.84092219020172" height="59.84092219020172" width="395.52" id="SvgjsSvg1037"><g><svg viewBox="0 0 395.52 59.84092219020172" height="59.84092219020172" width="395.52"><g transform="matrix(1,0,0,1,0,0)"><svg width="395.52" viewBox="2.6500000953674316 -35.95000076293945 240.24000549316406 36.75" height="59.84092219020172" data-palette-color="url(#5a8d769b-6af0-464b-93e1-1923fd2f5324)"><g class="undefined-text-0" data-fill-palette-color="primary" id="SvgjsG1036"><path d="M2.65 0L2.65-2.2Q4.3-2.3 5.03-2.9 5.75-3.5 5.95-4.7 6.15-5.9 6.15-7.75L6.15-7.75 6.15-28.55Q6.15-29.65 6.2-30.68 6.25-31.7 6.3-32.45L6.3-32.45Q5.45-32.4 4.45-32.35 3.45-32.3 2.65-32.25L2.65-32.25 2.65-35 15.4-35.05Q20.05-35.05 23.75-33.85 27.45-32.65 30.05-30.38 32.65-28.1 34-24.85 35.35-21.6 35.35-17.6L35.35-17.6Q35.35-14.25 34.2-11.1 33.05-7.95 30.68-5.48 28.3-3 24.7-1.5 21.1 0 16.2 0L16.2 0 2.65 0ZM11.45-27.3L11.45-6.65Q11.45-5.3 11.43-4.25 11.4-3.2 11.3-2.55L11.3-2.55Q12.35-2.55 13.4-2.53 14.45-2.5 15.28-2.5 16.1-2.5 16.45-2.5L16.45-2.5Q19.55-2.5 21.95-3.65 24.35-4.8 26.03-6.85 27.7-8.9 28.58-11.6 29.45-14.3 29.45-17.35L29.45-17.35Q29.45-22.25 27.85-25.65 26.25-29.05 23.03-30.85 19.8-32.65 15-32.7L15-32.7Q13.35-32.7 12.6-32.13 11.85-31.55 11.65-30.35 11.45-29.15 11.45-27.3L11.45-27.3ZM62.3-24.2L60-24.2Q59.75-26.75 58.7-28.8 57.65-30.85 55.8-32.08 53.95-33.3 51.2-33.25L51.2-33.25Q48.4-33.25 46.75-31.7 45.1-30.15 45.1-27.95L45.1-27.95Q45.1-26 46.2-24.68 47.3-23.35 49.17-22.3 51.05-21.25 53.4-20.2L53.4-20.2Q55.3-19.4 57.25-18.4 59.2-17.4 60.8-16.13 62.4-14.85 63.35-13.08 64.3-11.3 64.3-8.9L64.3-8.9Q64.3-6.1 62.85-3.9 61.4-1.7 58.72-0.45 56.05 0.8 52.25 0.8L52.25 0.8Q50.1 0.8 47.72 0.15 45.35-0.5 43.4-1.7L43.4-1.7 43.65 0.4 40.6 0.4 40.4-10.6 42.8-10.6Q43.2-6.25 45.92-4.03 48.65-1.8 52.45-1.8L52.45-1.8Q54.35-1.8 55.9-2.5 57.45-3.2 58.35-4.5 59.25-5.8 59.25-7.55L59.25-7.55Q59.25-9.6 58.02-11 56.8-12.4 54.92-13.4 53.05-14.4 51-15.3L51-15.3Q48.95-16.2 47.02-17.2 45.1-18.2 43.55-19.5 42-20.8 41.1-22.58 40.2-24.35 40.2-26.75L40.2-26.75Q40.2-28.15 40.7-29.7 41.2-31.25 42.4-32.65 43.6-34.05 45.67-34.93 47.75-35.8 50.9-35.8L50.9-35.8Q52.8-35.8 55.17-35.25 57.55-34.7 59.5-33.3L59.5-33.3 59.3-35.4 62.3-35.4 62.3-24.2ZM81.3-35L81.3-32.8Q79.69-32.75 78.94-32.13 78.19-31.5 78-30.33 77.8-29.15 77.8-27.25L77.8-27.25 77.8-6.7Q77.8-5.35 77.77-4.28 77.75-3.2 77.64-2.55L77.64-2.55Q78.5-2.65 79.52-2.68 80.55-2.7 81.3-2.75L81.3-2.75 81.3 0 69 0 69-2.2Q70.64-2.3 71.37-2.9 72.09-3.5 72.3-4.7 72.5-5.9 72.5-7.75L72.5-7.75 72.5-28.55Q72.5-29.65 72.55-30.68 72.59-31.7 72.64-32.45L72.64-32.45Q71.8-32.4 70.8-32.35 69.8-32.3 69-32.25L69-32.25 69-35 81.3-35Z" fill="white"></path></g></svg></g></svg></g></svg></g></svg></g></svg></g><defs><mask></mask></defs></svg></g></mask></svg><rect width="395.52" height="59.84092219020172" fill="none" stroke="none" visibility="hidden"></rect></g></svg></g></svg>